<svg width="368" height="415" viewBox="0 0 368 415" fill="none" xmlns="http://www.w3.org/2000/svg">
<path d="M352.38 308.719L183.675 406.061V233.315C183.675 214.839 173.816 197.768 157.813 188.534L28.5888 113.972C19.5143 108.736 19.5144 95.639 28.5888 90.403L167.964 9.98413C172.172 7.55616 177.355 7.55616 181.563 9.98414L352.38 108.545C356.591 110.975 359.185 115.467 359.185 120.329V296.934C359.185 301.796 356.591 306.289 352.38 308.719Z" fill="#F0C14D"/>
<path d="M183.675 406.061L352.38 308.719C356.591 306.289 359.185 301.796 359.185 296.934V120.329C359.185 115.467 356.591 110.975 352.38 108.545L181.563 9.98414C177.355 7.55616 172.172 7.55616 167.964 9.98413L28.5888 90.403C19.5144 95.639 19.5143 108.736 28.5888 113.972L157.813 188.534C173.816 197.768 183.675 214.839 183.675 233.315V406.061ZM183.675 406.061L8.16504 304.792" stroke="#F0C14D" stroke-width="16.3265" stroke-linecap="round" stroke-linejoin="round"/>
</svg>
