<svg width="366" height="348" viewBox="0 0 366 348" fill="none" xmlns="http://www.w3.org/2000/svg">
<path d="M134.408 8.66627L253.484 39.388L354.379 210.449C358.432 217.32 356.147 226.175 349.276 230.228L168.187 337.039C161.316 341.092 152.46 338.807 148.408 331.936L10.673 98.4171C6.62029 91.5461 8.905 82.6907 15.776 78.6381L134.408 8.66627ZM253.484 39.388L191.026 76.2271C184.155 80.2797 175.3 77.995 171.247 71.1241L134.408 8.66627M76.2213 111.131L108.989 91.8035M99.4142 150.453L154.652 117.872M122.607 189.775L217.167 134.001M145.8 229.097L268.447 156.757M168.441 267.482L291.088 195.142" stroke="#26428B" stroke-width="17.3326" stroke-linecap="round" stroke-linejoin="round"/>
</svg>
